<svg xmlns="http://www.w3.org/2000/svg"  viewBox="0 0 48 48" width="48px" height="48px"><linearGradient id="TNVn4gfXYACx1XIU5cfQra" x1="24" x2="24" y1="44.276" y2="8.328" gradientUnits="userSpaceOnUse"><stop offset=".395" stop-color="#cff3ff"/><stop offset=".544" stop-color="#b6e0f7"/><stop offset=".859" stop-color="#77b1e3"/><stop offset="1" stop-color="#599ad9"/></linearGradient><path fill="url(#TNVn4gfXYACx1XIU5cfQra)" d="M37.909,41H10.091C8.384,41,7,39.616,7,38.151V10.333C7,8.384,8.384,7,10.091,7h27.818 C39.616,7,41,8.384,41,10.091v27.818C41,39.616,39.616,41,37.909,41z"/><linearGradient id="TNVn4gfXYACx1XIU5cfQrb" x1="24" x2="24" y1="45.082" y2="34.03" gradientUnits="userSpaceOnUse"><stop offset=".005" stop-color="#7a9437"/><stop offset=".214" stop-color="#7e9737"/><stop offset=".423" stop-color="#8aa135"/><stop offset=".631" stop-color="#9eb233"/><stop offset=".838" stop-color="#baca30"/><stop offset=".983" stop-color="#d2de2e"/></linearGradient><path fill="url(#TNVn4gfXYACx1XIU5cfQrb)" d="M7,32.267v5.884C7,39.858,8.384,41,10.091,41h27.818C39.616,41,41,39.616,41,37.909v-5.642H7 z"/><path fill="#1194e0" d="M15.883,41c-0.017,0.012,8.051-1.65,8.051-3.843c0-1.035-0.835-1.447-0.721-2.55 c0.225-2.175,5.125-2.341,5.125-2.341l0,0c0,0-1.721,0.834,1.191,2.85c1.41,0.976,2.513,1.654,2.513,3.058 c0,1.809-1.629,2.826-1.629,2.826H15.883z"/><path fill="#1194e0" d="M15.905,41c-0.017,0.012,8.032-1.647,8.035-3.835c0.005-1.039-0.834-1.451-0.72-2.557 c0.224-2.171,5.118-2.341,5.118-2.341l0,0c0,0-1.721,0.832,1.18,2.847c1.405,0.977,2.516,1.656,2.516,3.06 C32.033,39.982,30.4,41,30.4,41H15.905z"/><path fill="#1294e0" d="M15.926,41c-0.017,0.012,8.005-1.645,8.019-3.828c0.007-1.042-0.833-1.455-0.719-2.564 c0.223-2.168,5.111-2.342,5.111-2.342l0,0c0,0-1.72,0.829,1.169,2.844c1.4,0.978,2.519,1.658,2.519,3.063 c0,1.808-1.638,2.827-1.638,2.827H15.926z"/><path fill="#1295e0" d="M15.948,41c-0.017,0.012,7.982-1.643,8.003-3.821c0.01-1.046-0.832-1.459-0.719-2.571 c0.222-2.164,5.105-2.342,5.105-2.342l0,0c0,0-1.72,0.827,1.159,2.841c1.396,0.978,2.522,1.659,2.522,3.065 c0,1.807-1.643,2.827-1.643,2.827H15.948z"/><path fill="#1395e1" d="M15.969,41c-0.017,0.012,7.96-1.641,7.988-3.814c0.013-1.05-0.831-1.463-0.718-2.578 c0.222-2.16,5.098-2.342,5.098-2.342l0,0c0,0-1.72,0.825,1.148,2.838c1.391,0.979,2.525,1.661,2.525,3.067 c0,1.807-1.647,2.828-1.647,2.828H15.969z"/><path fill="#1395e1" d="M15.991,41c-0.017,0.012,7.937-1.639,7.972-3.806c0.017-1.054-0.83-1.466-0.717-2.585 c0.221-2.157,5.092-2.342,5.092-2.342l0,0c0,0-1.72,0.822,1.137,2.835c1.386,0.979,2.528,1.663,2.528,3.069 c0,1.807-1.652,2.829-1.652,2.829H15.991z"/><path fill="#1395e1" d="M16.012,41c-0.017,0.012,7.915-1.637,7.956-3.799c0.02-1.057-0.829-1.47-0.716-2.592 c0.22-2.153,5.085-2.342,5.085-2.342l0,0c0,0-1.72,0.82,1.127,2.832c1.381,0.98,2.53,1.665,2.53,3.072 c0,1.806-1.656,2.829-1.656,2.829L16.012,41z"/><path fill="#1496e1" d="M16.034,41c-0.017,0.012,7.892-1.635,7.94-3.792c0.023-1.061-0.828-1.474-0.715-2.599 c0.219-2.15,5.078-2.343,5.078-2.343l0,0c0,0-1.72,0.818,1.116,2.83c1.376,0.981,2.533,1.667,2.533,3.074 c0,1.806-1.661,2.83-1.661,2.83L16.034,41z"/><path fill="#1496e1" d="M16.055,41c-0.016,0.012,7.87-1.632,7.924-3.784c0.027-1.065-0.827-1.478-0.714-2.606 c0.218-2.146,5.072-2.343,5.072-2.343l0,0c0,0-1.72,0.816,1.106,2.827c1.371,0.981,2.536,1.669,2.536,3.076 c0,1.806-1.665,2.831-1.665,2.831L16.055,41z"/><path fill="#1596e1" d="M16.076,41c-0.016,0.012,7.848-1.63,7.909-3.777c0.03-1.069-0.826-1.482-0.713-2.613 c0.218-2.142,5.065-2.343,5.065-2.343l0,0c0,0-1.72,0.813,1.095,2.824c1.367,0.982,2.539,1.67,2.539,3.078 c0,1.805-1.67,2.831-1.67,2.831L16.076,41z"/><path fill="#1596e2" d="M16.098,41c-0.016,0.012,7.826-1.628,7.893-3.77c0.034-1.072-0.825-1.485-0.712-2.62 c0.217-2.139,5.059-2.343,5.059-2.343l0,0c0,0-1.72,0.811,1.084,2.821c1.362,0.982,2.542,1.672,2.542,3.081 c0,1.805-1.674,2.832-1.674,2.832L16.098,41z"/><path fill="#1597e2" d="M16.119,41c-0.016,0.012,7.803-1.626,7.877-3.763c0.037-1.076-0.823-1.489-0.711-2.627 c0.216-2.135,5.052-2.343,5.052-2.343l0,0c0,0-1.72,0.809,1.074,2.818c1.357,0.983,2.545,1.674,2.545,3.083 c0,1.804-1.679,2.832-1.679,2.832L16.119,41z"/><path fill="#1697e2" d="M16.141,41c-0.016,0.012,7.781-1.624,7.861-3.755c0.041-1.08-0.822-1.493-0.71-2.634 c0.215-2.131,5.045-2.344,5.045-2.344l0,0c0,0-1.72,0.806,1.063,2.815c1.352,0.983,2.547,1.676,2.547,3.085 c0,1.804-1.683,2.833-1.683,2.833L16.141,41z"/><path fill="#1697e2" d="M16.162,41c-0.016,0.012,7.759-1.622,7.846-3.748c0.044-1.084-0.821-1.497-0.71-2.641 c0.214-2.128,5.039-2.344,5.039-2.344l0,0c0,0-1.72,0.804,1.052,2.812c1.347,0.984,2.55,1.678,2.55,3.088 c0,1.804-1.688,2.834-1.688,2.834L16.162,41z"/><path fill="#1797e2" d="M16.184,41c-0.016,0.012,7.737-1.62,7.83-3.741c0.047-1.088-0.82-1.501-0.709-2.648 c0.214-2.124,5.032-2.344,5.032-2.344l0,0c0,0-1.715,0.796,1.042,2.809c1.345,0.982,2.553,1.68,2.553,3.09 c0,1.803-1.692,2.834-1.692,2.834L16.184,41z"/><path fill="#1798e2" d="M16.205,41c-0.016,0.012,7.715-1.618,7.814-3.734c0.051-1.092-0.819-1.504-0.708-2.655 c0.213-2.121,5.026-2.344,5.026-2.344l0,0c0,0-1.715,0.793,1.031,2.806c1.34,0.982,2.556,1.681,2.556,3.092 c0,1.803-1.697,2.835-1.697,2.835L16.205,41z"/><path fill="#1798e2" d="M16.227,41c-0.016,0.012,7.693-1.616,7.798-3.726c0.054-1.096-0.818-1.508-0.707-2.663 c0.212-2.117,5.019-2.345,5.019-2.345l0,0c0,0-1.715,0.791,1.02,2.804c1.335,0.983,2.559,1.683,2.559,3.094 c0,1.803-1.701,2.835-1.701,2.835L16.227,41z"/><path fill="#1898e3" d="M16.248,41c-0.016,0.012,7.672-1.614,7.783-3.719c0.058-1.099-0.817-1.512-0.706-2.67 c0.211-2.113,5.012-2.345,5.012-2.345l0,0c0,0-1.714,0.788,1.01,2.801c1.331,0.983,2.562,1.685,2.562,3.097 c0,1.802-1.706,2.836-1.706,2.836L16.248,41z"/><path fill="#1898e3" d="M16.27,41c-0.016,0.012,7.65-1.612,7.767-3.712c0.061-1.103-0.818-1.516-0.705-2.677 c0.206-2.11,5.006-2.345,5.006-2.345l0,0c0,0-1.714,0.785,0.999,2.798c1.326,0.983,2.564,1.687,2.564,3.099 c0,1.802-1.71,2.837-1.71,2.837L16.27,41z"/><path fill="#1999e3" d="M16.291,41c-0.016,0.011,7.628-1.61,7.751-3.704c0.065-1.107-0.818-1.52-0.704-2.684 c0.205-2.106,4.999-2.345,4.999-2.345l0,0c0,0-1.714,0.783,0.989,2.795c1.321,0.984,2.567,1.689,2.567,3.101 c0,1.801-1.715,2.837-1.715,2.837L16.291,41z"/><path fill="#1999e3" d="M16.313,41c-0.016,0.011,7.607-1.609,7.735-3.697c0.068-1.111-0.817-1.524-0.703-2.691 c0.204-2.103,4.993-2.345,4.993-2.345l0,0c0,0-1.713,0.78,0.978,2.792c1.316,0.984,2.57,1.69,2.57,3.103 c0,1.801-1.719,2.838-1.719,2.838L16.313,41z"/><path fill="#1999e3" d="M16.334,41c-0.016,0.011,7.585-1.607,7.719-3.69c0.072-1.115-0.816-1.528-0.702-2.698 c0.203-2.099,4.986-2.346,4.986-2.346l0,0c0,0-1.713,0.777,0.967,2.789c1.312,0.985,2.573,1.692,2.573,3.106 c0,1.801-1.724,2.838-1.724,2.838L16.334,41z"/><path fill="#1a99e3" d="M16.356,41c-0.016,0.011,7.563-1.605,7.704-3.683c0.076-1.119-0.815-1.531-0.701-2.705 c0.202-2.096,4.979-2.346,4.979-2.346l0,0c0,0-1.713,0.775,0.957,2.786c1.307,0.985,2.576,1.694,2.576,3.108 c0,1.8-1.728,2.839-1.728,2.839L16.356,41z"/><path fill="#1a9ae4" d="M16.377,41c-0.016,0.011,7.542-1.603,7.688-3.675c0.079-1.123-0.814-1.535-0.701-2.712 c0.201-2.092,4.973-2.346,4.973-2.346l0,0c0,0-1.712,0.772,0.946,2.783c1.302,0.986,2.579,1.696,2.579,3.11 c0,1.8-1.733,2.84-1.733,2.84L16.377,41z"/><path fill="#1b9ae4" d="M16.399,41c-0.016,0.011,7.52-1.601,7.672-3.668c0.083-1.127-0.813-1.539-0.7-2.719 c0.2-2.088,4.966-2.346,4.966-2.346l0,0c0,0-1.712,0.769,0.935,2.781c1.298,0.986,2.581,1.698,2.581,3.113 c0,1.8-1.737,2.84-1.737,2.84L16.399,41z"/><path fill="#1b9ae4" d="M16.42,41c-0.016,0.011,7.499-1.599,7.656-3.661c0.086-1.131-0.812-1.543-0.699-2.726 c0.199-2.085,4.96-2.346,4.96-2.346l0,0c0,0-1.711,0.767,0.925,2.778c1.293,0.986,2.584,1.7,2.584,3.115 c0,1.799-1.742,2.841-1.742,2.841L16.42,41z"/><path fill="#1b9ae4" d="M16.441,41c-0.016,0.011,7.478-1.597,7.641-3.654c0.09-1.135-0.811-1.547-0.698-2.733 c0.198-2.081,4.953-2.347,4.953-2.347l0,0c0,0-1.711,0.764,0.914,2.775c1.288,0.987,2.587,1.701,2.587,3.117 c0,1.799-1.746,2.842-1.746,2.842L16.441,41z"/><path fill="#1c9be4" d="M16.463,41c-0.016,0.011,7.456-1.595,7.625-3.646c0.094-1.139-0.81-1.55-0.697-2.74 c0.198-2.078,4.946-2.347,4.946-2.347l0,0c0,0-1.711,0.761,0.904,2.772c1.284,0.987,2.59,1.703,2.59,3.119 c0,1.798-1.751,2.842-1.751,2.842L16.463,41z"/><path fill="#1c9be4" d="M16.484,41c-0.016,0.011,7.435-1.593,7.609-3.639c0.097-1.143-0.809-1.554-0.696-2.747 c0.197-2.074,4.94-2.347,4.94-2.347l0,0c0,0-1.71,0.759,0.893,2.769c1.279,0.988,2.593,1.705,2.593,3.122 c0,1.798-1.755,2.843-1.755,2.843L16.484,41z"/><path fill="#1d9be4" d="M16.506,41c-0.016,0.011,7.414-1.591,7.593-3.632c0.101-1.147-0.808-1.558-0.695-2.754 c0.196-2.07,4.933-2.347,4.933-2.347l0,0c0,0-1.71,0.756,0.882,2.766c1.274,0.988,2.596,1.707,2.596,3.124 c0,1.798-1.76,2.843-1.76,2.843L16.506,41z"/><path fill="#1d9be5" d="M16.527,41c-0.016,0.011,7.393-1.59,7.578-3.625c0.104-1.151-0.807-1.562-0.694-2.761 c0.195-2.067,4.927-2.347,4.927-2.347l0,0c0,0-1.71,0.754,0.872,2.763c1.27,0.988,2.598,1.709,2.598,3.126 c0,1.797-1.764,2.844-1.764,2.844L16.527,41z"/><path fill="#1d9ce5" d="M16.549,41c-0.016,0.011,7.372-1.588,7.562-3.617c0.108-1.155-0.806-1.566-0.693-2.768 c0.194-2.063,4.92-2.348,4.92-2.348l0,0c0,0-1.709,0.751,0.861,2.76c1.265,0.989,2.601,1.711,2.601,3.128 c0,1.797-1.768,2.845-1.768,2.845L16.549,41z"/><path fill="#1e9ce5" d="M16.57,41c-0.016,0.011,7.351-1.586,7.546-3.61c0.112-1.159-0.805-1.569-0.692-2.775 c0.193-2.06,4.913-2.348,4.913-2.348l0,0c0,0-1.709,0.748,0.85,2.757c1.26,0.989,2.604,1.712,2.604,3.131 c0,1.797-1.773,2.845-1.773,2.845L16.57,41z"/><path fill="#1e9ce5" d="M16.592,41c-0.016,0.011,7.33-1.584,7.53-3.603c0.115-1.163-0.804-1.573-0.692-2.783 c0.192-2.056,4.907-2.348,4.907-2.348l0,0c0,0-1.709,0.746,0.84,2.755c1.256,0.99,2.607,1.714,2.607,3.133 c0,1.796-1.777,2.846-1.777,2.846L16.592,41z"/><path fill="#1f9ce5" d="M16.613,41c-0.016,0.011,7.309-1.582,7.514-3.595c0.119-1.167-0.803-1.577-0.691-2.79 c0.191-2.052,4.9-2.348,4.9-2.348l0,0c0,0-1.708,0.743,0.829,2.752c1.251,0.99,2.61,1.716,2.61,3.135 c0,1.796-1.782,2.846-1.782,2.846L16.613,41z"/><path fill="#1f9de5" d="M16.635,41c-0.016,0.011,7.288-1.58,7.499-3.588c0.123-1.171-0.803-1.581-0.69-2.797 c0.19-2.049,4.894-2.349,4.894-2.349l0,0c0,0-1.708,0.741,0.819,2.749c1.246,0.991,2.612,1.718,2.612,3.138 c0,1.795-1.786,2.847-1.786,2.847L16.635,41z"/><path fill="#1f9de6" d="M16.656,41c-0.016,0.011,7.267-1.579,7.483-3.581c0.127-1.175-0.802-1.585-0.689-2.804 c0.189-2.045,4.887-2.349,4.887-2.349l0,0c0,0-1.708,0.738,0.808,2.746c1.242,0.991,2.615,1.72,2.615,3.14 c0,1.795-1.791,2.848-1.791,2.848L16.656,41z"/><path fill="#209de6" d="M16.678,41c-0.016,0.011,7.246-1.577,7.467-3.574c0.13-1.179-0.801-1.589-0.688-2.811 c0.188-2.041,4.88-2.349,4.88-2.349l0,0c0,0-1.707,0.735,0.797,2.743c1.237,0.992,2.618,1.722,2.618,3.142 c0,1.795-1.795,2.848-1.795,2.848L16.678,41z"/><path fill="#209de6" d="M16.699,41c-0.016,0.011,7.226-1.575,7.451-3.566c0.134-1.183-0.8-1.592-0.687-2.818 c0.187-2.038,4.874-2.349,4.874-2.349l0,0c0,0-1.707,0.733,0.787,2.74c1.232,0.992,2.621,1.723,2.621,3.144 c0,1.794-1.8,2.849-1.8,2.849L16.699,41z"/><path fill="#219ee6" d="M16.721,41c-0.016,0.011,7.205-1.573,7.436-3.559c0.138-1.187-0.799-1.596-0.686-2.825 c0.186-2.034,4.867-2.349,4.867-2.349l0,0c0,0-1.707,0.73,0.776,2.737c1.228,0.992,2.624,1.725,2.624,3.147 c0,1.794-1.804,2.849-1.804,2.849L16.721,41z"/><path fill="#219ee6" d="M16.742,41c-0.016,0.011,7.184-1.571,7.42-3.552c0.142-1.191-0.798-1.6-0.685-2.832 c0.185-2.031,4.861-2.35,4.861-2.35l0,0c0,0-1.706,0.728,0.765,2.734c1.223,0.993,2.627,1.727,2.627,3.149 c0,1.794-1.809,2.85-1.809,2.85L16.742,41z"/><path fill="#219ee6" d="M16.763,41c-0.016,0.011,7.164-1.569,7.404-3.545c0.146-1.195-0.797-1.604-0.684-2.839 c0.184-2.027,4.854-2.35,4.854-2.35l0,0c0,0-1.706,0.725,0.755,2.732c1.218,0.993,2.629,1.729,2.629,3.151 c0,1.793-1.813,2.851-1.813,2.851L16.763,41z"/><path fill="#229ee6" d="M16.785,41c-0.016,0.011,7.143-1.568,7.388-3.537c0.149-1.199-0.796-1.608-0.684-2.846 c0.184-2.023,4.847-2.35,4.847-2.35l0,0c0,0-1.705,0.723,0.744,2.729c1.214,0.994,2.632,1.731,2.632,3.153 c0,1.793-1.818,2.851-1.818,2.851L16.785,41z"/><path fill="#229ee7" d="M16.806,41c-0.016,0.011,7.122-1.566,7.372-3.53c0.153-1.204-0.795-1.611-0.683-2.853 c0.183-2.02,4.841-2.35,4.841-2.35l0,0c0,0-1.705,0.72,0.733,2.726c1.209,0.994,2.635,1.733,2.635,3.156 c0,1.792-1.822,2.852-1.822,2.852L16.806,41z"/><path fill="#239fe7" d="M16.828,41c-0.016,0.011,7.102-1.564,7.357-3.523c0.157-1.208-0.794-1.615-0.682-2.86 c0.182-2.016,4.834-2.35,4.834-2.35l0,0c0,0-1.705,0.717,0.723,2.723c1.204,0.995,2.638,1.734,2.638,3.158 c0,1.792-1.827,2.852-1.827,2.852L16.828,41z"/><path fill="#239fe7" d="M16.849,41c-0.016,0.011,7.082-1.562,7.341-3.515c0.161-1.212-0.793-1.619-0.681-2.867 c0.181-2.012,4.828-2.351,4.828-2.351l0,0c0,0-1.704,0.715,0.712,2.72c1.2,0.995,2.641,1.736,2.641,3.16 c0,1.792-1.831,2.853-1.831,2.853L16.849,41z"/><path fill="#239fe7" d="M16.871,41c-0.016,0.011,7.061-1.56,7.325-3.508c0.165-1.216-0.792-1.623-0.68-2.874 c0.18-2.009,4.821-2.351,4.821-2.351l0,0c0,0-1.704,0.712,0.702,2.717c1.195,0.996,2.644,1.738,2.644,3.163 c0,1.791-1.836,2.854-1.836,2.854L16.871,41z"/><path fill="#249fe7" d="M16.892,41c-0.015,0.011,7.041-1.559,7.309-3.501c0.169-1.22-0.791-1.627-0.679-2.881 c0.179-2.005,4.814-2.351,4.814-2.351l0,0c0,0-1.704,0.71,0.691,2.714c1.19,0.996,2.646,1.74,2.646,3.165 c0,1.791-1.84,2.854-1.84,2.854L16.892,41z"/><path fill="#24a0e7" d="M16.914,41c-0.015,0.011,7.021-1.557,7.294-3.494c0.173-1.224-0.79-1.63-0.678-2.888 c0.178-2.002,4.808-2.351,4.808-2.351l0,0c0,0-1.703,0.707,0.68,2.711c1.185,0.997,2.649,1.742,2.649,3.167 c0,1.791-1.845,2.855-1.845,2.855L16.914,41z"/><path fill="#25a0e8" d="M16.935,41c-0.015,0.011,7-1.555,7.278-3.486c0.177-1.228-0.789-1.634-0.677-2.896 c0.177-1.998,4.801-2.352,4.801-2.352l0,0c0,0-1.703,0.705,0.67,2.708c1.181,0.997,2.652,1.744,2.652,3.169 c0,1.79-1.849,2.856-1.849,2.856L16.935,41z"/><path fill="#25a0e8" d="M16.957,41c-0.015,0.011,6.98-1.553,7.262-3.479c0.18-1.232-0.788-1.638-0.676-2.903 c0.176-1.994,4.795-2.352,4.795-2.352l0,0c0,0-1.703,0.702,0.659,2.706c1.176,0.998,2.655,1.745,2.655,3.172 c0,1.79-1.854,2.856-1.854,2.856L16.957,41z"/><path fill="#25a0e8" d="M16.978,41c-0.015,0.011,6.96-1.551,7.246-3.472c0.184-1.236-0.787-1.642-0.675-2.91 c0.176-1.991,4.788-2.352,4.788-2.352l0,0c0,0-1.703,0.7,0.648,2.703c1.171,0.998,2.658,1.747,2.658,3.174 c0,1.789-1.858,2.857-1.858,2.857L16.978,41z"/><path fill="#26a1e8" d="M17,41c-0.015,0.011,6.94-1.55,7.231-3.465c0.188-1.24-0.786-1.646-0.675-2.917 c0.175-1.987,4.781-2.352,4.781-2.352l0,0c0,0-1.702,0.697,0.638,2.7c1.167,0.999,2.661,1.749,2.661,3.176 c0,1.789-1.863,2.857-1.863,2.857L17,41z"/><path fill="#26a1e8" d="M17.021,41c-0.015,0.011,6.92-1.548,7.215-3.457c0.192-1.245-0.785-1.65-0.674-2.924 c0.174-1.983,4.775-2.352,4.775-2.352l0,0c0,0-1.702,0.695,0.627,2.697c1.162,0.999,2.663,1.751,2.663,3.179 c0,1.789-1.867,2.858-1.867,2.858L17.021,41z"/><path fill="#26a1e8" d="M17.043,41c-0.015,0.011,6.9-1.546,7.199-3.45c0.196-1.249-0.784-1.653-0.673-2.931 c0.173-1.98,4.768-2.353,4.768-2.353l0,0c0,0-1.702,0.692,0.617,2.694c1.157,0.999,2.666,1.753,2.666,3.181 c0,1.788-1.872,2.859-1.872,2.859L17.043,41z"/><path fill="#27a1e8" d="M17.064,41c-0.015,0.011,6.88-1.544,7.183-3.443c0.2-1.253-0.783-1.657-0.672-2.938 c0.172-1.976,4.762-2.353,4.762-2.353l0,0c0,0-1.701,0.69,0.606,2.691c1.153,1,2.669,1.755,2.669,3.183 c0,1.788-1.876,2.859-1.876,2.859L17.064,41z"/><path fill="#27a2e9" d="M17.086,41c-0.015,0.011,6.86-1.542,7.167-3.435c0.204-1.257-0.782-1.661-0.671-2.945 c0.171-1.973,4.755-2.353,4.755-2.353l0,0c0,0-1.701,0.687,0.595,2.688c1.148,1,2.672,1.756,2.672,3.185 c0,1.788-1.881,2.86-1.881,2.86L17.086,41z"/><path fill="#28a2e9" d="M17.107,41c-0.015,0.011,6.84-1.541,7.152-3.428c0.208-1.261-0.781-1.665-0.67-2.952 c0.17-1.969,4.748-2.353,4.748-2.353l0,0c0,0-1.701,0.685,0.585,2.685c1.143,1.001,2.675,1.758,2.675,3.188 c0,1.787-1.885,2.86-1.885,2.86L17.107,41z"/><path fill="#28a2e9" d="M17.128,41c-0.015,0.011,6.82-1.539,7.136-3.421c0.213-1.265-0.78-1.669-0.669-2.959 c0.17-1.965,4.742-2.353,4.742-2.353l0,0c0,0-1.7,0.682,0.574,2.682c1.139,1.001,2.678,1.76,2.678,3.19 c0,1.787-1.89,2.861-1.89,2.861L17.128,41z"/><path fill="#28a2e9" d="M17.15,41c-0.015,0.011,6.8-1.537,7.12-3.414c0.217-1.269-0.779-1.672-0.668-2.966 c0.169-1.962,4.735-2.354,4.735-2.354l0,0c0,0-1.7,0.68,0.563,2.68c1.134,1.002,2.68,1.762,2.68,3.192 c0,1.786-1.894,2.862-1.894,2.862L17.15,41z"/><path fill="#29a3e9" d="M17.171,41c-0.015,0.011,6.78-1.535,7.104-3.406c0.221-1.274-0.778-1.676-0.667-2.973 c0.168-1.958,4.729-2.354,4.729-2.354l0,0c0,0-1.7,0.677,0.553,2.677c1.129,1.002,2.683,1.764,2.683,3.194 c0,1.786-1.899,2.862-1.899,2.862L17.171,41z"/><path fill="#29a3e9" d="M17.193,41c-0.015,0.011,6.76-1.533,7.089-3.399c0.225-1.278-0.778-1.68-0.666-2.98 c0.167-1.954,4.722-2.354,4.722-2.354l0,0c0,0-1.699,0.675,0.542,2.674c1.125,1.003,2.686,1.766,2.686,3.197 c0,1.786-1.903,2.863-1.903,2.863L17.193,41z"/><path fill="#2aa3ea" d="M17.214,41c-0.015,0.011,6.741-1.532,7.073-3.392c0.229-1.282-0.777-1.684-0.666-2.987 c0.166-1.951,4.716-2.354,4.716-2.354l0,0c0,0-1.699,0.672,0.531,2.671c1.12,1.003,2.689,1.767,2.689,3.199 c0,1.785-1.908,2.863-1.908,2.863L17.214,41z"/><path fill="#2aa3ea" d="M17.236,41c-0.015,0.011,6.721-1.53,7.057-3.385c0.233-1.286-0.776-1.688-0.665-2.994 c0.165-1.947,4.709-2.354,4.709-2.354l0,0c0,0-1.699,0.67,0.521,2.668c1.115,1.004,2.692,1.769,2.692,3.201 c0,1.785-1.912,2.864-1.912,2.864L17.236,41z"/><path fill="#2aa4ea" d="M17.257,41c-0.015,0.011,6.701-1.528,7.041-3.377c0.237-1.29-0.775-1.691-0.664-3.001 c0.164-1.944,4.702-2.355,4.702-2.355l0,0c0,0-1.698,0.667,0.51,2.665c1.11,1.004,2.695,1.771,2.695,3.204 c0,1.785-1.917,2.865-1.917,2.865L17.257,41z"/><path fill="#2ba4ea" d="M17.279,41c-0.015,0.011,6.681-1.526,7.026-3.37c0.241-1.294-0.774-1.695-0.663-3.008 c0.164-1.94,4.696-2.355,4.696-2.355l0,0c0,0-1.698,0.665,0.5,2.662c1.106,1.005,2.697,1.773,2.697,3.206 c0,1.784-1.921,2.865-1.921,2.865L17.279,41z"/><path fill="#2ba4ea" d="M17.3,41c-0.015,0.011,6.662-1.524,7.01-3.363c0.246-1.298-0.773-1.699-0.662-3.016 c0.163-1.936,4.689-2.355,4.689-2.355l0,0c0,0-1.698,0.662,0.489,2.659c1.101,1.005,2.7,1.775,2.7,3.208 c0,1.784-1.926,2.866-1.926,2.866L17.3,41z"/><path fill="#2ca4ea" d="M17.322,41c-0.015,0.011,6.642-1.522,6.994-3.355c0.25-1.302-0.772-1.703-0.661-3.023 c0.162-1.933,4.683-2.355,4.683-2.355l0,0c0,0-1.698,0.66,0.478,2.657c1.096,1.006,2.703,1.777,2.703,3.21 c0,1.783-1.93,2.867-1.93,2.867L17.322,41z"/><path fill="#2ca5ea" d="M17.343,41c-0.015,0.011,6.623-1.521,6.978-3.348c0.254-1.307-0.771-1.707-0.66-3.03 c0.161-1.929,4.676-2.356,4.676-2.356l0,0c0,0-1.697,0.658,0.468,2.654c1.092,1.006,2.706,1.778,2.706,3.213 c0,1.783-1.935,2.867-1.935,2.867L17.343,41z"/><path fill="#2ca5eb" d="M17.365,41c-0.015,0.011,6.603-1.519,6.962-3.341c0.258-1.311-0.77-1.711-0.659-3.037 c0.16-1.925,4.669-2.356,4.669-2.356l0,0c0,0-1.697,0.655,0.457,2.651c1.087,1.007,2.709,1.78,2.709,3.215 c0,1.783-1.939,2.868-1.939,2.868L17.365,41z"/><path fill="#2da5eb" d="M17.386,41c-0.015,0.011,6.584-1.517,6.947-3.334c0.263-1.315-0.769-1.714-0.658-3.044 c0.159-1.922,4.663-2.356,4.663-2.356l0,0c0,0-1.697,0.653,0.446,2.648c1.082,1.007,2.712,1.782,2.712,3.217 c0,1.782-1.944,2.868-1.944,2.868L17.386,41z"/><path fill="#2da5eb" d="M17.408,41c-0.015,0.011,6.564-1.515,6.931-3.326c0.267-1.319-0.768-1.718-0.657-3.051 c0.159-1.918,4.656-2.356,4.656-2.356l0,0c0,0-1.696,0.65,0.436,2.645c1.078,1.008,2.714,1.784,2.714,3.219 c0,1.782-1.948,2.869-1.948,2.869L17.408,41z"/><path fill="#2ea6eb" d="M17.429,41c-0.015,0.011,6.545-1.513,6.915-3.319c0.271-1.323-0.767-1.722-0.657-3.058 c0.158-1.915,4.65-2.356,4.65-2.356l0,0c0,0-1.696,0.648,0.425,2.642c1.073,1.009,2.717,1.786,2.717,3.222 c0,1.782-1.953,2.87-1.953,2.87L17.429,41z"/><path fill="#2ea6eb" d="M17.451,41c-0.015,0.011,6.526-1.511,6.899-3.312c0.276-1.327-0.766-1.726-0.656-3.065 c0.157-1.911,4.643-2.357,4.643-2.357l0,0c0,0-1.696,0.645,0.415,2.639c1.068,1.009,2.72,1.788,2.72,3.224 c0,1.781-1.957,2.87-1.957,2.87L17.451,41z"/><path fill="#2ea6eb" d="M17.472,41c-0.015,0.01,6.506-1.51,6.884-3.305c0.28-1.331-0.765-1.73-0.655-3.072 c0.156-1.907,4.636-2.357,4.636-2.357l0,0c0,0-1.696,0.643,0.404,2.636c1.063,1.01,2.723,1.789,2.723,3.226 c0,1.781-1.962,2.871-1.962,2.871L17.472,41z"/><path fill="#2fa6ec" d="M17.493,41c-0.015,0.01,6.487-1.508,6.868-3.297c0.284-1.336-0.764-1.733-0.654-3.079 c0.155-1.904,4.63-2.357,4.63-2.357l0,0c0,0-1.695,0.641,0.393,2.633c1.059,1.01,2.726,1.791,2.726,3.229 c0,1.78-1.966,2.871-1.966,2.871L17.493,41z"/><path fill="#2fa7ec" d="M17.515,41c-0.015,0.01,6.468-1.506,6.852-3.29c0.289-1.34-0.763-1.737-0.653-3.086 c0.155-1.9,4.623-2.357,4.623-2.357l0,0c0,0-1.695,0.638,0.383,2.631c1.054,1.011,2.729,1.793,2.728,3.231 c0,1.78-1.971,2.872-1.971,2.872L17.515,41z"/><path fill="#30a7ec" d="M17.536,41c-0.015,0.01,6.448-1.504,6.836-3.283c0.293-1.344-0.762-1.741-0.652-3.093 c0.154-1.896,4.617-2.357,4.617-2.357l0,0c0,0-1.695,0.636,0.372,2.628c1.049,1.011,2.731,1.795,2.731,3.233 c0,1.78-1.975,2.873-1.975,2.873L17.536,41z"/><path fill="#30a7ec" d="M17.558,41c-0.015,0.01,6.429-1.502,6.82-3.275c0.297-1.348-0.761-1.745-0.651-3.1 c0.153-1.893,4.61-2.358,4.61-2.358l0,0c0,0-1.695,0.633,0.361,2.625c1.045,1.012,2.734,1.797,2.734,3.235 c0,1.779-1.98,2.873-1.98,2.873L17.558,41z"/><path fill="#30a7ec" d="M17.579,41c-0.015,0.01,6.41-1.5,6.805-3.268c0.302-1.352-0.76-1.749-0.65-3.107 c0.152-1.889,4.603-2.358,4.603-2.358l0,0c0,0-1.694,0.631,0.351,2.622c1.04,1.012,2.737,1.799,2.737,3.238 c0,1.779-1.984,2.874-1.984,2.874L17.579,41z"/><path fill="#31a8ec" d="M17.601,41c-0.015,0.01,6.391-1.498,6.789-3.261c0.306-1.356-0.759-1.752-0.649-3.114 c0.151-1.886,4.597-2.358,4.597-2.358l0,0c0,0-1.694,0.629,0.34,2.619c1.035,1.013,2.74,1.8,2.74,3.24 c0,1.779-1.988,2.874-1.988,2.874L17.601,41z"/><path fill="#31a8ec" d="M17.622,41c-0.015,0.01,6.372-1.497,6.773-3.254c0.311-1.36-0.758-1.756-0.648-3.121 c0.151-1.882,4.59-2.358,4.59-2.358l0,0c0,0-1.694,0.626,0.329,2.616c1.03,1.013,2.743,1.802,2.743,3.242 c0,1.778-1.993,2.875-1.993,2.875L17.622,41z"/><path fill="#32a8ed" d="M17.644,41c-0.015,0.01,6.353-1.495,6.757-3.246c0.315-1.364-0.757-1.76-0.648-3.128 c0.15-1.878,4.584-2.358,4.584-2.358l0,0c0,0-1.694,0.624,0.319,2.613c1.026,1.014,2.745,1.804,2.745,3.244 c0,1.778-1.997,2.876-1.997,2.876L17.644,41z"/><path fill="#32a8ed" d="M17.665,41c-0.015,0.01,6.333-1.493,6.742-3.239c0.32-1.369-0.756-1.764-0.647-3.136 c0.149-1.875,4.577-2.359,4.577-2.359l0,0c0,0-1.693,0.622,0.308,2.61c1.021,1.014,2.748,1.806,2.748,3.247 c0,1.777-2.002,2.876-2.002,2.876L17.665,41z"/><path fill="#32a8ed" d="M17.687,41c-0.015,0.01,6.314-1.491,6.726-3.232c0.324-1.373-0.755-1.768-0.646-3.143 c0.148-1.871,4.57-2.359,4.57-2.359l0,0c0,0-1.693,0.619,0.298,2.608c1.016,1.015,2.751,1.808,2.751,3.249 c0,1.777-2.006,2.877-2.006,2.877L17.687,41z"/><path fill="#33a9ed" d="M17.708,41c-0.015,0.01,6.295-1.489,6.71-3.225c0.329-1.377-0.754-1.771-0.645-3.15 c0.147-1.867,4.564-2.359,4.564-2.359l0,0c0,0-1.693,0.617,0.287,2.605c1.012,1.016,2.754,1.81,2.754,3.251 c0,1.777-2.011,2.877-2.011,2.877L17.708,41z"/><path fill="#33a9ed" d="M17.73,41c-0.014,0.01,6.276-1.487,6.694-3.217c0.334-1.381-0.753-1.775-0.644-3.157 c0.147-1.864,4.557-2.359,4.557-2.359l0,0c0,0-1.693,0.615,0.276,2.602c1.007,1.016,2.757,1.811,2.757,3.254 c0,1.776-2.015,2.878-2.015,2.878L17.73,41z"/><path fill="#34a9ed" d="M17.751,41c-0.014,0.01,6.257-1.485,6.679-3.21c0.338-1.385-0.752-1.779-0.643-3.164 c0.146-1.86,4.551-2.36,4.551-2.36l0,0c0,0-1.692,0.612,0.266,2.599c1.002,1.017,2.76,1.813,2.76,3.256 c0,1.776-2.02,2.879-2.02,2.879L17.751,41z"/><path fill="#34a9ee" d="M17.773,41c-0.014,0.01,6.239-1.483,6.663-3.203c0.343-1.389-0.751-1.783-0.642-3.171 c0.145-1.856,4.544-2.36,4.544-2.36l0,0c0,0-1.692,0.61,0.255,2.596c0.997,1.017,2.762,1.815,2.762,3.258 c0,1.775-2.024,2.879-2.024,2.879L17.773,41z"/><path fill="#34aaee" d="M17.794,41c-0.014,0.01,6.22-1.481,6.647-3.196c0.347-1.393-0.75-1.787-0.641-3.178 c0.144-1.853,4.537-2.36,4.537-2.36l0,0c0,0-1.692,0.608,0.244,2.593c0.993,1.018,2.765,1.817,2.765,3.26 c0,1.775-2.029,2.88-2.029,2.88L17.794,41z"/><path fill="#35aaee" d="M17.816,41c-0.014,0.01,6.201-1.48,6.631-3.188c0.352-1.397-0.749-1.79-0.64-3.185 c0.143-1.849,4.531-2.36,4.531-2.36l0,0c0,0-1.692,0.605,0.234,2.59c0.988,1.018,2.768,1.819,2.768,3.263 c0,1.775-2.033,2.881-2.033,2.881L17.816,41z"/><path fill="#35aaee" d="M17.837,41c-0.014,0.01,6.182-1.478,6.615-3.181c0.357-1.401-0.748-1.794-0.639-3.192 c0.143-1.846,4.524-2.36,4.524-2.36l0,0c0,0-1.691,0.603,0.223,2.587c0.983,1.019,2.771,1.821,2.771,3.265 c0,1.774-2.038,2.881-2.038,2.881L17.837,41z"/><path fill="#36aaee" d="M17.858,41c-0.014,0.01,6.163-1.476,6.6-3.174c0.361-1.405-0.747-1.798-0.639-3.199 c0.142-1.842,4.518-2.361,4.518-2.361l0,0c0,0-1.691,0.601,0.213,2.584c0.978,1.02,2.774,1.822,2.774,3.267 c0,1.774-2.042,2.882-2.042,2.882L17.858,41z"/><path fill="#36abee" d="M17.88,41c-0.014,0.01,6.144-1.474,6.584-3.166c0.366-1.41-0.745-1.802-0.638-3.206 c0.141-1.838,4.511-2.361,4.511-2.361l0,0c0,0-1.691,0.598,0.202,2.582c0.974,1.02,2.777,1.824,2.777,3.269 c0,1.774-2.047,2.882-2.047,2.882L17.88,41z"/><path fill="#36abee" d="M17.901,41c-0.014,0.01,6.126-1.472,6.568-3.159c0.371-1.414-0.744-1.806-0.637-3.213 c0.14-1.835,4.504-2.361,4.504-2.361l0,0c0,0-1.691,0.596,0.191,2.579c0.969,1.021,2.779,1.826,2.779,3.272 c0,1.773-2.051,2.883-2.051,2.883L17.901,41z"/><path fill="#37abef" d="M17.923,41c-0.014,0.01,6.107-1.47,6.552-3.152c0.376-1.418-0.743-1.809-0.636-3.22 c0.14-1.831,4.498-2.361,4.498-2.361l0,0c0,0-1.691,0.594,0.181,2.576c0.964,1.021,2.782,1.828,2.782,3.274 c0,1.773-2.056,2.884-2.056,2.884L17.923,41z"/><path fill="#37abef" d="M17.944,41c-0.014,0.01,6.088-1.468,6.537-3.145c0.38-1.422-0.742-1.813-0.635-3.227 c0.139-1.827,4.491-2.361,4.491-2.361l0,0c0,0-1.69,0.591,0.17,2.573c0.959,1.022,2.785,1.83,2.785,3.276 c0,1.772-2.06,2.884-2.06,2.884L17.944,41z"/><path fill="#38acef" d="M17.966,41c-0.014,0.01,6.069-1.466,6.521-3.137c0.385-1.426-0.741-1.817-0.634-3.234 c0.138-1.824,4.485-2.362,4.485-2.362l0,0c0,0-1.69,0.589,0.159,2.57c0.955,1.022,2.788,1.832,2.788,3.279 c0,1.772-2.065,2.885-2.065,2.885L17.966,41z"/><path fill="#38acef" d="M17.987,41c-0.014,0.01,6.051-1.464,6.505-3.13c0.39-1.43-0.74-1.821-0.633-3.241 c0.137-1.82,4.478-2.362,4.478-2.362l0,0c0,0-1.69,0.587,0.149,2.567c0.95,1.023,2.791,1.833,2.791,3.281 c0,1.772-2.069,2.885-2.069,2.885L17.987,41z"/><path fill="#38acef" d="M18.009,41c-0.014,0.01,6.032-1.462,6.489-3.123c0.395-1.434-0.739-1.825-0.632-3.249 c0.137-1.817,4.471-2.362,4.471-2.362l0,0c0,0-1.69,0.585,0.138,2.564c0.945,1.024,2.794,1.835,2.794,3.283 c0,1.771-2.074,2.886-2.074,2.886L18.009,41z"/><path fill="#39acef" d="M18.03,41c-0.014,0.01,6.013-1.46,6.474-3.116c0.4-1.438-0.738-1.829-0.631-3.256 c0.136-1.813,4.465-2.362,4.465-2.362l0,0c0,0-1.69,0.582,0.127,2.561c0.94,1.024,2.796,1.837,2.796,3.285 c0,1.771-2.078,2.887-2.078,2.887L18.03,41z"/><path fill="#39adf0" d="M18.052,41c-0.014,0.01,5.995-1.458,6.458-3.108c0.405-1.442-0.737-1.832-0.631-3.263 c0.135-1.809,4.458-2.362,4.458-2.362l0,0c0,0-1.689,0.58,0.117,2.559c0.936,1.025,2.799,1.839,2.799,3.288 c0,1.771-2.083,2.887-2.083,2.887L18.052,41z"/><path fill="#3aadf0" d="M18.073,41c-0.014,0.01,5.976-1.456,6.442-3.101c0.409-1.446-0.736-1.836-0.63-3.27 c0.134-1.806,4.452-2.363,4.452-2.363l0,0c0,0-1.689,0.578,0.106,2.556c0.931,1.025,2.802,1.841,2.802,3.29 c0,1.77-2.087,2.888-2.087,2.888L18.073,41z"/><path fill="#3aadf0" d="M18.095,41c-0.014,0.01,5.958-1.454,6.426-3.094c0.414-1.45-0.735-1.84-0.629-3.277 c0.133-1.802,4.445-2.363,4.445-2.363l0,0c0,0-1.689,0.576,0.096,2.553c0.926,1.026,2.805,1.843,2.805,3.292 c0,1.77-2.092,2.888-2.092,2.888L18.095,41z"/><path fill="#3aadf0" d="M18.116,41c-0.014,0.01,5.939-1.452,6.41-3.086c0.419-1.454-0.734-1.844-0.628-3.284 c0.133-1.798,4.438-2.363,4.438-2.363l0,0c0,0-1.689,0.573,0.085,2.55c0.921,1.027,2.808,1.844,2.808,3.294 c0,1.769-2.096,2.889-2.096,2.889L18.116,41z"/><path fill="#3baef0" d="M18.138,41c-0.014,0.01,5.921-1.45,6.395-3.079c0.424-1.458-0.733-1.848-0.627-3.291 c0.132-1.795,4.432-2.363,4.432-2.363l0,0c0,0-1.689,0.571,0.074,2.547c0.917,1.027,2.811,1.846,2.811,3.297 c0,1.769-2.101,2.89-2.101,2.89L18.138,41z"/><path fill="#3baef0" d="M18.159,41c-0.014,0.01,5.902-1.448,6.379-3.072c0.429-1.462-0.732-1.851-0.626-3.298 c0.131-1.791,4.425-2.364,4.425-2.364l0,0c0,0-1.689,0.569,0.064,2.544c0.912,1.028,2.813,1.848,2.813,3.299 c0,1.769-2.105,2.89-2.105,2.89L18.159,41z"/><path fill="#3caef1" d="M18.18,41c-0.014,0.01,5.884-1.446,6.363-3.065c0.434-1.466-0.731-1.855-0.625-3.305 c0.131-1.787,4.419-2.364,4.419-2.364l0,0c0,0-1.689,0.567,0.053,2.541c0.907,1.028,2.816,1.85,2.816,3.301 c0,1.768-2.11,2.891-2.11,2.891L18.18,41z"/><path fill="#3caef1" d="M18.202,41c-0.014,0.01,5.865-1.444,6.347-3.057c0.439-1.47-0.73-1.859-0.624-3.312 c0.13-1.784,4.412-2.364,4.412-2.364l0,0c0,0-1.688,0.564,0.042,2.538c0.902,1.029,2.819,1.852,2.819,3.304 c0,1.768-2.114,2.892-2.114,2.892L18.202,41z"/><path fill="#3caff1" d="M18.223,41c-0.014,0.01,5.847-1.442,6.332-3.05c0.444-1.474-0.729-1.863-0.623-3.319 c0.129-1.78,4.405-2.364,4.405-2.364l0,0c0,0-1.688,0.562,0.032,2.535c0.898,1.03,2.822,1.854,2.822,3.306 c0,1.768-2.119,2.892-2.119,2.892L18.223,41z"/><path fill="#3daff1" d="M18.245,41c-0.014,0.01,5.828-1.44,6.316-3.043c0.449-1.478-0.728-1.867-0.622-3.326 c0.128-1.777,4.399-2.364,4.399-2.364l0,0c0,0-1.688,0.56,0.021,2.533c0.893,1.03,2.825,1.855,2.825,3.308 c0,1.767-2.123,2.893-2.123,2.893L18.245,41z"/><path fill="#3daff1" d="M18.266,41c-0.014,0.01,5.81-1.438,6.3-3.036c0.454-1.482-0.727-1.87-0.622-3.333 c0.128-1.773,4.392-2.365,4.392-2.365l0,0c0,0-1.688,0.558,0.011,2.53c0.888,1.031,2.828,1.857,2.828,3.31 c0,1.767-2.128,2.893-2.128,2.893L18.266,41z"/><path fill="#3eaff1" d="M18.288,41c-0.014,0.01,5.792-1.436,6.284-3.028c0.46-1.486-0.726-1.874-0.621-3.34 c0.127-1.769,4.386-2.365,4.386-2.365l0,0c0,0-1.688,0.555,0,2.527c0.883,1.032,2.83,1.859,2.83,3.313 c0,1.766-2.132,2.894-2.132,2.894L18.288,41z"/><path fill="#3eb0f1" d="M18.309,41c-0.014,0.01,5.773-1.434,6.268-3.021c0.465-1.49-0.725-1.878-0.62-3.347 c0.126-1.766,4.379-2.365,4.379-2.365l0,0c0,0-1.688,0.553-0.011,2.524c0.878,1.032,2.833,1.861,2.833,3.315 c0,1.766-2.137,2.895-2.137,2.895L18.309,41z"/><path fill="#3eb0f2" d="M18.331,41c-0.014,0.01,5.755-1.431,6.253-3.014c0.47-1.494-0.724-1.882-0.619-3.354 c0.125-1.762,4.372-2.365,4.372-2.365l0,0c0,0-1.688,0.551-0.021,2.521c0.874,1.033,2.836,1.863,2.836,3.317 c0,1.766-2.141,2.895-2.141,2.895L18.331,41z"/><path fill="#3fb0f2" d="M18.352,41c-0.014,0.01,5.737-1.429,6.237-3.006c0.475-1.498-0.723-1.886-0.618-3.361 c0.125-1.758,4.366-2.365,4.366-2.365l0,0c0,0-1.688,0.549-0.032,2.518c0.869,1.034,2.839,1.865,2.839,3.32 c0,1.765-2.146,2.896-2.146,2.896L18.352,41z"/><path fill="#3fb0f2" d="M18.374,41c-0.014,0.01,5.718-1.427,6.221-2.999c0.48-1.502-0.721-1.889-0.617-3.369 c0.124-1.755,4.359-2.366,4.359-2.366l0,0c0,0-1.687,0.547-0.043,2.515c0.864,1.034,2.842,1.866,2.842,3.322 c0,1.765-2.15,2.896-2.15,2.896L18.374,41z"/><path fill="#40b1f2" d="M18.395,41c-0.014,0.01,5.7-1.425,6.205-2.992c0.486-1.505-0.72-1.893-0.616-3.376 c0.123-1.751,4.353-2.366,4.353-2.366l0,0c0,0-1.687,0.545-0.053,2.512c0.859,1.035,2.845,1.868,2.844,3.324 c0,1.765-2.155,2.897-2.155,2.897L18.395,41z"/><path fill="#40b1f2" d="M18.417,41c-0.014,0.01,5.682-1.423,6.19-2.985c0.491-1.509-0.719-1.897-0.615-3.383 c0.122-1.747,4.346-2.366,4.346-2.366l0,0c0,0-1.687,0.542-0.064,2.509c0.854,1.035,2.847,1.87,2.847,3.326 c0,1.764-2.159,2.898-2.159,2.898L18.417,41z"/><path fill="#40b1f2" d="M18.438,41c-0.014,0.01,5.664-1.421,6.174-2.977c0.496-1.513-0.718-1.901-0.614-3.39 c0.122-1.744,4.339-2.366,4.339-2.366l0,0c0,0-1.687,0.54-0.075,2.507c0.85,1.036,2.85,1.872,2.85,3.329 c0,1.764-2.164,2.898-2.164,2.898L18.438,41z"/><path fill="#41b1f3" d="M18.46,41c-0.014,0.01,5.645-1.419,6.158-2.97c0.501-1.517-0.717-1.905-0.613-3.397 c0.121-1.74,4.333-2.366,4.333-2.366l0,0c0,0-1.687,0.538-0.085,2.504c0.845,1.037,2.853,1.874,2.853,3.331 c0,1.763-2.168,2.899-2.168,2.899L18.46,41z"/><path fill="#41b1f3" d="M18.481,41c-0.014,0.01,5.627-1.417,6.142-2.963c0.507-1.521-0.716-1.908-0.613-3.404 c0.12-1.737,4.326-2.367,4.326-2.367l0,0c0,0-1.687,0.536-0.096,2.501c0.84,1.037,2.856,1.876,2.856,3.333 c0,1.763-2.173,2.899-2.173,2.899L18.481,41z"/><path fill="#42b2f3" d="M18.503,41c-0.014,0.01,5.609-1.414,6.127-2.956c0.512-1.525-0.715-1.912-0.612-3.411 c0.12-1.733,4.32-2.367,4.32-2.367l0,0c0,0-1.687,0.534-0.106,2.498c0.835,1.038,2.859,1.877,2.859,3.335 c0,1.763-2.177,2.9-2.177,2.9L18.503,41z"/><path fill="#42b2f3" d="M18.524,41c-0.014,0.01,5.591-1.412,6.111-2.948c0.517-1.529-0.714-1.916-0.611-3.418 c0.119-1.729,4.313-2.367,4.313-2.367l0,0c0,0-1.687,0.532-0.117,2.495c0.83,1.039,2.861,1.879,2.861,3.338 C31.082,39.862,28.9,41,28.9,41L18.524,41z"/><path fill="#42b2f3" d="M18.545,41c-0.014,0.01,5.573-1.41,6.095-2.941c0.523-1.532-0.713-1.92-0.61-3.425 c0.118-1.726,4.307-2.367,4.307-2.367l0,0c0,0-1.687,0.529-0.128,2.492c0.826,1.039,2.864,1.881,2.864,3.34 c0,1.762-2.186,2.901-2.186,2.901L18.545,41z"/><path fill="#43b2f3" d="M18.567,41c-0.014,0.01,5.555-1.408,6.079-2.934c0.528-1.536-0.712-1.924-0.609-3.432 c0.117-1.722,4.3-2.368,4.3-2.368l0,0c0,0-1.687,0.527-0.138,2.489c0.821,1.04,2.867,1.883,2.867,3.342 c0,1.762-2.191,2.902-2.191,2.902L18.567,41z"/><path fill="#43b3f3" d="M18.588,41c-0.013,0.01,5.536-1.406,6.063-2.926c0.534-1.54-0.711-1.927-0.608-3.439 c0.117-1.718,4.293-2.368,4.293-2.368l0,0c0,0-1.687,0.525-0.149,2.486c0.816,1.041,2.87,1.885,2.87,3.345 c0,1.761-2.195,2.903-2.195,2.903L18.588,41z"/><path fill="#44b3f4" d="M18.61,41c-0.013,0.01,5.518-1.403,6.048-2.919c0.539-1.544-0.71-1.931-0.607-3.446 c0.116-1.715,4.287-2.368,4.287-2.368l0,0c0,0-1.687,0.523-0.16,2.484c0.811,1.041,2.873,1.887,2.873,3.347 c0,1.761-2.2,2.903-2.2,2.903L18.61,41z"/><path fill="#44b3f4" d="M18.631,41c-0.013,0.01,5.5-1.401,6.032-2.912c0.545-1.548-0.709-1.935-0.606-3.453 c0.115-1.711,4.28-2.368,4.28-2.368l0,0c0,0-1.687,0.521-0.17,2.481c0.806,1.042,2.876,1.888,2.876,3.349 c0,1.76-2.204,2.904-2.204,2.904L18.631,41z"/><path fill="#44b3f4" d="M18.653,41c-0.013,0.01,5.482-1.399,6.016-2.905c0.55-1.551-0.708-1.939-0.605-3.46 c0.115-1.707,4.274-2.368,4.274-2.368l0,0c0,0-1.687,0.519-0.181,2.478c0.802,1.043,2.878,1.89,2.878,3.351 c0,1.76-2.208,2.904-2.208,2.904L18.653,41z"/><path fill="#45b4f4" d="M18.674,41c-0.013,0.009,5.464-1.397,6-2.897c0.556-1.555-0.706-1.943-0.604-3.467 c0.114-1.704,4.267-2.369,4.267-2.369l0,0c0,0-1.687,0.517-0.191,2.475c0.797,1.043,2.881,1.892,2.881,3.354 c0,1.76-2.213,2.905-2.213,2.905L18.674,41z"/><path fill="#45b4f4" d="M18.696,41c-0.013,0.009,5.446-1.395,5.985-2.89c0.561-1.559-0.705-1.946-0.604-3.474 c0.113-1.7,4.26-2.369,4.26-2.369l0,0c0,0-1.687,0.515-0.202,2.472c0.792,1.044,2.884,1.894,2.884,3.356 c0,1.759-2.217,2.906-2.217,2.906L18.696,41z"/><path fill="#46b4f4" d="M18.717,41c-0.013,0.009,5.428-1.392,5.969-2.883c0.567-1.563-0.704-1.95-0.603-3.481 c0.113-1.696,4.254-2.369,4.254-2.369l0,0c0,0-1.687,0.512-0.213,2.469c0.787,1.045,2.887,1.896,2.887,3.358 c0,1.759-2.222,2.906-2.222,2.906L18.717,41z"/><path fill="#46b4f5" d="M18.739,41c-0.013,0.009,5.41-1.39,5.953-2.876c0.573-1.566-0.703-1.954-0.602-3.489 c0.112-1.693,4.247-2.369,4.247-2.369l0,0c0,0-1.687,0.51-0.223,2.466c0.782,1.045,2.89,1.898,2.89,3.36 c0,1.759-2.226,2.907-2.226,2.907L18.739,41z"/><path fill="#46b5f5" d="M18.76,41c-0.013,0.009,5.392-1.388,5.937-2.868c0.578-1.57-0.702-1.958-0.601-3.496 c0.111-1.689,4.241-2.369,4.241-2.369l0,0c0,0-1.687,0.508-0.234,2.463c0.777,1.046,2.893,1.899,2.893,3.363 c0,1.758-2.231,2.907-2.231,2.907L18.76,41z"/><path fill="#47b5f5" d="M18.782,41c-0.013,0.009,5.374-1.385,5.922-2.861c0.584-1.574-0.701-1.962-0.6-3.503 c0.11-1.686,4.234-2.37,4.234-2.37l0,0c0,0-1.687,0.506-0.245,2.46c0.772,1.047,2.895,1.901,2.895,3.365 c0,1.758-2.235,2.908-2.235,2.908L18.782,41z"/><path fill="#47b5f5" d="M18.803,41c-0.013,0.009,5.356-1.383,5.906-2.854c0.59-1.577-0.7-1.965-0.599-3.51 c0.11-1.682,4.227-2.37,4.227-2.37l0,0c0,0-1.687,0.504-0.255,2.458c0.768,1.047,2.898,1.903,2.898,3.367 c0,1.757-2.24,2.909-2.24,2.909L18.803,41z"/><path fill="#48b5f5" d="M18.825,41c-0.013,0.009,5.338-1.381,5.89-2.846c0.595-1.581-0.699-1.969-0.598-3.517 c0.109-1.678,4.221-2.37,4.221-2.37l0,0c0,0-1.687,0.502-0.266,2.455c0.763,1.048,2.901,1.905,2.901,3.37 c0,1.757-2.244,2.909-2.244,2.909L18.825,41z"/><path fill="#48b6f5" d="M18.846,41c-0.013,0.009,5.32-1.379,5.874-2.839c0.601-1.585-0.698-1.973-0.597-3.524 c0.108-1.675,4.214-2.37,4.214-2.37l0,0c0,0-1.687,0.5-0.276,2.452c0.758,1.049,2.904,1.907,2.904,3.372 c0,1.757-2.249,2.91-2.249,2.91L18.846,41z"/><path fill="#48b6f5" d="M18.868,41c-0.013,0.009,5.302-1.376,5.858-2.832c0.607-1.588-0.697-1.977-0.596-3.531 c0.108-1.671,4.208-2.371,4.208-2.371l0,0c0,0-1.687,0.498-0.287,2.449c0.753,1.05,2.907,1.909,2.907,3.374 c0,1.756-2.253,2.91-2.253,2.91L18.868,41z"/><path fill="#49b6f6" d="M18.889,41c-0.013,0.009,5.284-1.374,5.843-2.825c0.613-1.592-0.695-1.981-0.595-3.538 c0.107-1.667,4.201-2.371,4.201-2.371l0,0c0,0-1.687,0.496-0.298,2.446c0.748,1.05,2.91,1.91,2.91,3.376 c0,1.756-2.258,2.911-2.258,2.911L18.889,41z"/><path fill="#49b6f6" d="M18.91,41c-0.013,0.009,5.267-1.372,5.827-2.817c0.618-1.596-0.694-1.984-0.595-3.545 c0.106-1.664,4.194-2.371,4.194-2.371l0,0c0,0-1.687,0.494-0.308,2.443c0.743,1.051,2.912,1.912,2.912,3.379 c0,1.756-2.262,2.912-2.262,2.912L18.91,41z"/><path fill="#4ab7f6" d="M18.932,41c-0.013,0.009,5.249-1.369,5.811-2.81c0.624-1.599-0.693-1.988-0.594-3.552 c0.106-1.66,4.188-2.371,4.188-2.371l0,0c0,0-1.687,0.492-0.319,2.44c0.738,1.052,2.915,1.914,2.915,3.381 c0,1.755-2.267,2.912-2.267,2.912L18.932,41z"/><path fill="#4ab7f6" d="M18.953,41c-0.013,0.009,5.231-1.367,5.795-2.803c0.63-1.603-0.692-1.992-0.593-3.559 c0.105-1.656,4.181-2.371,4.181-2.371l0,0c0,0-1.687,0.49-0.33,2.437c0.733,1.052,2.918,1.916,2.918,3.383 c0,1.755-2.271,2.913-2.271,2.913L18.953,41z"/><path fill="#4ab7f6" d="M18.975,41c-0.013,0.009,5.213-1.364,5.78-2.796c0.636-1.606-0.691-1.996-0.592-3.566 c0.104-1.653,4.175-2.372,4.175-2.372l0,0c0,0-1.687,0.488-0.34,2.435c0.729,1.053,2.921,1.918,2.921,3.385 c0,1.754-2.276,2.913-2.276,2.913L18.975,41z"/><path fill="#4bb7f6" d="M18.996,41c-0.013,0.009,5.195-1.362,5.764-2.788c0.642-1.61-0.69-2-0.591-3.573 c0.104-1.649,4.168-2.372,4.168-2.372l0,0c0,0-1.687,0.485-0.351,2.432c0.724,1.054,2.924,1.92,2.924,3.388 c0,1.754-2.28,2.914-2.28,2.914L18.996,41z"/><path fill="#4bb8f7" d="M19.018,41c-0.013,0.009,5.177-1.36,5.748-2.781c0.648-1.613-0.689-2.003-0.59-3.58 c0.103-1.646,4.161-2.372,4.161-2.372l0,0c0,0-1.687,0.483-0.362,2.429c0.719,1.055,2.927,1.921,2.927,3.39 c0,1.754-2.285,2.915-2.285,2.915L19.018,41z"/><path fill="#4cb8f7" d="M19.039,41c-0.013,0.009,5.159-1.357,5.732-2.774c0.654-1.617-0.688-2.007-0.589-3.587 c0.102-1.642,4.155-2.372,4.155-2.372l0,0c0,0-1.688,0.481-0.372,2.426c0.714,1.055,2.929,1.923,2.929,3.392 c0,1.753-2.289,2.915-2.289,2.915L19.039,41z"/><path fill="#4cb8f7" d="M19.061,41c-0.013,0.009,5.142-1.355,5.717-2.767c0.66-1.62-0.686-2.011-0.588-3.594 c0.102-1.638,4.148-2.372,4.148-2.372l0,0c0,0-1.688,0.479-0.383,2.423c0.709,1.056,2.932,1.925,2.932,3.395 c0,1.753-2.294,2.916-2.294,2.916L19.061,41z"/><path fill="#4cb8f7" d="M19.082,41c-0.013,0.009,5.124-1.352,5.701-2.759c0.666-1.624-0.685-2.015-0.587-3.602 c0.101-1.635,4.142-2.373,4.142-2.373l0,0c0,0-1.688,0.477-0.393,2.42c0.704,1.057,2.935,1.927,2.935,3.397 c0,1.753-2.298,2.917-2.298,2.917L19.082,41z"/><path fill="#4db9f7" d="M19.104,41c-0.013,0.009,5.106-1.35,5.685-2.752c0.672-1.627-0.684-2.019-0.586-3.609 c0.1-1.631,4.135-2.373,4.135-2.373l0,0c0,0-1.688,0.475-0.404,2.417c0.699,1.057,2.938,1.929,2.938,3.399 c0,1.752-2.303,2.917-2.303,2.917L19.104,41z"/><path fill="#4db9f7" d="M19.125,41c-0.013,0.009,5.088-1.347,5.669-2.745c0.678-1.631-0.683-2.022-0.586-3.616 c0.1-1.627,4.128-2.373,4.128-2.373l0,0c0,0-1.688,0.473-0.415,2.414c0.694,1.058,2.941,1.931,2.941,3.401 c0,1.752-2.307,2.918-2.307,2.918L19.125,41z"/><path fill="#4db9f7" d="M19.147,41c-0.013,0.009,5.07-1.345,5.653-2.737c0.684-1.634-0.682-2.026-0.585-3.623 c0.099-1.624,4.122-2.373,4.122-2.373l0,0c0,0-1.688,0.471-0.425,2.411c0.689,1.059,2.944,1.932,2.944,3.404 c0,1.751-2.312,2.918-2.312,2.918L19.147,41z"/><path fill="#4eb9f8" d="M19.168,41c-0.013,0.009,5.053-1.343,5.638-2.73c0.69-1.638-0.681-2.03-0.584-3.63 c0.098-1.62,4.115-2.373,4.115-2.373l0,0c0,0-1.688,0.469-0.436,2.409c0.684,1.06,2.946,1.934,2.946,3.406 c0,1.751-2.316,2.919-2.316,2.919L19.168,41z"/><path fill="#4ebaf8" d="M19.19,41c-0.013,0.009,5.035-1.34,5.622-2.723c0.697-1.641-0.68-2.034-0.583-3.637 c0.098-1.616,4.109-2.374,4.109-2.374l0,0c0,0-1.689,0.467-0.447,2.406c0.679,1.06,2.949,1.936,2.949,3.408 c0,1.751-2.321,2.92-2.321,2.92L19.19,41z"/><path fill="#4fbaf8" d="M19.211,41c-0.013,0.009,5.017-1.338,5.606-2.716c0.703-1.644-0.679-2.038-0.582-3.644 c0.097-1.613,4.102-2.374,4.102-2.374l0,0c0,0-1.689,0.465-0.457,2.403c0.674,1.061,2.952,1.938,2.952,3.41 c0,1.75-2.325,2.92-2.325,2.92L19.211,41z"/><path fill="#4fbaf8" d="M19.233,41c-0.013,0.009,4.999-1.335,5.59-2.708c0.709-1.648-0.677-2.041-0.581-3.651 c0.096-1.609,4.095-2.374,4.095-2.374l0,0c0,0-1.689,0.463-0.468,2.4c0.669,1.062,2.955,1.94,2.955,3.413 c0,1.75-2.33,2.921-2.33,2.921L19.233,41z"/><path fill="#4fbaf8" d="M19.254,41c-0.013,0.009,4.982-1.332,5.575-2.701c0.715-1.651-0.676-2.045-0.58-3.658 c0.096-1.606,4.089-2.374,4.089-2.374l0,0c0,0-1.689,0.461-0.478,2.397c0.664,1.063,2.958,1.941,2.958,3.415 c0,1.75-2.334,2.921-2.334,2.921L19.254,41z"/><path fill="#50bbf8" d="M19.275,41c-0.013,0.009,4.964-1.33,5.559-2.694c0.721-1.654-0.675-2.049-0.579-3.665 c0.095-1.602,4.082-2.375,4.082-2.375l0,0c0,0-1.689,0.459-0.489,2.394c0.66,1.063,2.961,1.943,2.96,3.417 c0,1.749-2.339,2.922-2.339,2.922L19.275,41z"/><path fill="#50bbf9" d="M19.297,41c-0.013,0.009,4.946-1.327,5.543-2.687c0.728-1.658-0.674-2.053-0.578-3.672 c0.094-1.598,4.076-2.375,4.076-2.375l0,0c0,0-1.69,0.457-0.5,2.391c0.655,1.064,2.963,1.945,2.963,3.42 c0,1.749-2.343,2.923-2.343,2.923L19.297,41z"/><path fill="#51bbf9" d="M19.318,41c-0.013,0.009,4.929-1.325,5.527-2.679c0.734-1.661-0.673-2.057-0.577-3.679 c0.094-1.595,4.069-2.375,4.069-2.375l0,0c0,0-1.69,0.455-0.51,2.388c0.65,1.065,2.966,1.947,2.966,3.422 c0,1.748-2.348,2.923-2.348,2.923L19.318,41z"/><path fill="#51bbf9" d="M19.34,41c-0.013,0.009,4.911-1.322,5.511-2.672c0.74-1.664-0.672-2.06-0.577-3.686 c0.093-1.591,4.062-2.375,4.062-2.375l0,0c0,0-1.69,0.453-0.521,2.386c0.645,1.065,2.969,1.949,2.969,3.424 c0,1.748-2.352,2.924-2.352,2.924L19.34,41z"/><path fill="#51bbf9" d="M19.361,41c-0.013,0.009,4.893-1.32,5.496-2.665c0.747-1.668-0.67-2.064-0.576-3.693 c0.092-1.587,4.056-2.375,4.056-2.375l0,0c0,0-1.69,0.451-0.532,2.383c0.64,1.066,2.972,1.951,2.972,3.426 c0,1.748-2.357,2.924-2.357,2.924L19.361,41z"/><path fill="#52bcf9" d="M19.383,41c-0.013,0.009,4.876-1.317,5.48-2.657c0.753-1.671-0.669-2.068-0.575-3.7 c0.092-1.584,4.049-2.376,4.049-2.376l0,0c0,0-1.691,0.449-0.542,2.38c0.635,1.067,2.975,1.952,2.975,3.429 c0,1.747-2.361,2.925-2.361,2.925L19.383,41z"/><path fill="#52bcf9" d="M19.404,41c-0.013,0.009,4.858-1.314,5.464-2.65c0.76-1.674-0.668-2.072-0.574-3.707 c0.091-1.58,4.043-2.376,4.043-2.376l0,0c0,0-1.691,0.447-0.553,2.377c0.63,1.068,2.977,1.954,2.977,3.431 c0,1.747-2.366,2.926-2.366,2.926L19.404,41z"/><path fill="#53bcf9" d="M19.426,41c-0.012,0.009,4.84-1.312,5.448-2.643c0.766-1.677-0.667-2.076-0.573-3.714 c0.09-1.576,4.036-2.376,4.036-2.376l0,0c0,0-1.691,0.445-0.564,2.374c0.625,1.068,2.98,1.956,2.98,3.433 c0,1.747-2.37,2.926-2.37,2.926L19.426,41z"/><path fill="#53bcfa" d="M19.447,41c-0.012,0.009,4.823-1.309,5.433-2.636c0.773-1.68-0.666-2.079-0.572-3.722 c0.09-1.573,4.029-2.376,4.029-2.376l0,0c0,0-1.691,0.443-0.574,2.371c0.62,1.069,2.983,1.958,2.983,3.435 c0,1.746-2.375,2.927-2.375,2.927L19.447,41z"/><path fill="#53bdfa" d="M19.469,41c-0.012,0.009,4.805-1.307,5.417-2.628c0.779-1.684-0.665-2.083-0.571-3.729 c0.089-1.569,4.023-2.376,4.023-2.376l0,0c0,0-1.692,0.441-0.585,2.368c0.615,1.07,2.986,1.96,2.986,3.438 c0,1.746-2.379,2.928-2.379,2.928L19.469,41z"/><path fill="#54bdfa" d="M19.49,41c-0.012,0.009,4.787-1.304,5.401-2.621c0.786-1.687-0.663-2.087-0.57-3.736 c0.088-1.565,4.016-2.377,4.016-2.377l0,0c0,0-1.692,0.439-0.595,2.365c0.61,1.071,2.989,1.962,2.989,3.44 c0,1.745-2.384,2.928-2.384,2.928L19.49,41z"/><path fill="#54bdfa" d="M19.512,41c-0.012,0.009,4.77-1.301,5.385-2.614c0.792-1.69-0.662-2.091-0.569-3.743 c0.088-1.562,4.01-2.377,4.01-2.377l0,0c0,0-1.692,0.437-0.606,2.362c0.605,1.072,2.992,1.963,2.992,3.442 c0,1.745-2.388,2.929-2.388,2.929L19.512,41z"/><path fill="#55bdfa" d="M19.533,41c-0.012,0.009,4.752-1.299,5.37-2.607c0.799-1.693-0.661-2.095-0.569-3.75 c0.087-1.558,4.003-2.377,4.003-2.377l0,0c0,0-1.693,0.435-0.617,2.36c0.6,1.072,2.994,1.965,2.994,3.445 c0,1.745-2.393,2.929-2.393,2.929L19.533,41z"/><path fill="#55befa" d="M19.555,41c-0.012,0.009,4.735-1.296,5.354-2.599c0.806-1.696-0.66-2.098-0.568-3.757 c0.087-1.555,3.996-2.377,3.996-2.377l0,0c0,0-1.693,0.433-0.627,2.357c0.594,1.073,2.997,1.967,2.997,3.447 c0,1.744-2.397,2.93-2.397,2.93L19.555,41z"/><path fill="#55befb" d="M19.576,41c-0.012,0.009,4.717-1.293,5.338-2.592c0.812-1.699-0.659-2.102-0.567-3.764 c0.086-1.551,3.99-2.377,3.99-2.377l0,0c0,0-1.693,0.431-0.638,2.354c0.589,1.074,3,1.969,3,3.449 c0,1.744-2.402,2.931-2.402,2.931L19.576,41z"/><path fill="#56befb" d="M19.597,41c-0.012,0.009,4.699-1.29,5.322-2.585c0.819-1.702-0.658-2.106-0.566-3.771 c0.085-1.547,3.983-2.378,3.983-2.378l0,0c0,0-1.694,0.429-0.649,2.351c0.584,1.075,3.003,1.971,3.003,3.451 c0,1.744-2.406,2.931-2.406,2.931L19.597,41z"/><path fill="#56befb" d="M19.619,41c-0.012,0.009,4.682-1.288,5.306-2.577c0.826-1.705-0.656-2.11-0.565-3.778 c0.085-1.544,3.977-2.378,3.977-2.378l0,0c0,0-1.694,0.427-0.659,2.348c0.579,1.075,3.006,1.973,3.006,3.454 c0,1.743-2.411,2.932-2.411,2.932L19.619,41z"/><path fill="#57bffb" d="M19.64,41c-0.012,0.009,4.664-1.285,5.291-2.57c0.832-1.708-0.655-2.114-0.564-3.785 c0.084-1.54,3.97-2.378,3.97-2.378l0,0c0,0-1.694,0.425-0.67,2.345c0.574,1.076,3.009,1.974,3.009,3.456 c0,1.743-2.415,2.932-2.415,2.932L19.64,41z"/><path fill="#57bffb" d="M19.662,41c-0.012,0.009,4.647-1.282,5.275-2.563c0.839-1.711-0.654-2.117-0.563-3.792 c0.083-1.536,3.963-2.378,3.963-2.378l0,0c0,0-1.695,0.423-0.68,2.342c0.569,1.077,3.011,1.976,3.011,3.458 c0,1.742-2.42,2.933-2.42,2.933L19.662,41z"/><path fill="#57bffb" d="M19.683,41c-0.012,0.009,4.629-1.279,5.259-2.556c0.846-1.714-0.653-2.121-0.562-3.799 c0.083-1.533,3.957-2.379,3.957-2.379l0,0c0,0-1.695,0.421-0.691,2.339c0.564,1.078,3.014,1.978,3.014,3.46 c0,1.742-2.424,2.934-2.424,2.934L19.683,41z"/><path fill="#58bffb" d="M19.705,41c-0.012,0.009,4.611-1.277,5.243-2.548c0.853-1.717-0.652-2.125-0.561-3.806 c0.082-1.529,3.95-2.379,3.95-2.379l0,0c0,0-1.696,0.42-0.702,2.336c0.559,1.078,3.017,1.98,3.017,3.463 c0,1.742-2.429,2.934-2.429,2.934L19.705,41z"/><path fill="#58c0fc" d="M19.726,41c-0.012,0.009,4.594-1.274,5.228-2.541c0.86-1.72-0.65-2.129-0.56-3.813 c0.081-1.525,3.944-2.379,3.944-2.379l0,0c0,0-1.696,0.418-0.712,2.334c0.554,1.079,3.02,1.982,3.02,3.465 c0,1.741-2.433,2.935-2.433,2.935L19.726,41z"/><path fill="#59c0fc" d="M19.748,41c-0.012,0.009,4.576-1.271,5.212-2.534c0.867-1.722-0.649-2.133-0.56-3.82 c0.081-1.522,3.937-2.379,3.937-2.379l0,0c0,0-1.696,0.416-0.723,2.331c0.549,1.08,3.023,1.984,3.023,3.467 c0,1.741-2.437,2.935-2.437,2.935L19.748,41z"/><path fill="#59c0fc" d="M19.769,41c-0.012,0.009,4.559-1.268,5.196-2.527c0.874-1.725-0.648-2.136-0.559-3.827 c0.08-1.518,3.93-2.379,3.93-2.379l0,0c0,0-1.697,0.414-0.734,2.328c0.544,1.081,3.026,1.985,3.026,3.47 c0,1.741-2.442,2.936-2.442,2.936L19.769,41z"/><path fill="#59c0fc" d="M19.791,41c-0.012,0.009,4.541-1.265,5.18-2.519c0.881-1.728-0.647-2.14-0.558-3.834 c0.08-1.515,3.924-2.38,3.924-2.38l0,0c0,0-1.697,0.412-0.744,2.325c0.539,1.081,3.028,1.987,3.028,3.472 c0,1.74-2.446,2.937-2.446,2.937L19.791,41z"/><path fill="#5ac1fc" d="M19.812,41c-0.012,0.009,4.524-1.262,5.165-2.512c0.888-1.731-0.642-2.144-0.557-3.842 c0.082-1.511,3.917-2.38,3.917-2.38l0,0c0,0-1.698,0.41-0.755,2.322c0.534,1.082,3.031,1.989,3.031,3.474 c0,1.74-2.451,2.937-2.451,2.937L19.812,41z"/><path fill="#5ac1fc" d="M19.834,41c-0.012,0.009,4.506-1.259,5.149-2.505c0.895-1.734-0.641-2.148-0.556-3.849 c0.081-1.507,3.911-2.38,3.911-2.38l0,0c0,0-1.698,0.408-0.766,2.319c0.528,1.083,3.034,1.991,3.034,3.476 c0,1.739-2.455,2.938-2.455,2.938L19.834,41z"/><path fill="#5bc1fd" d="M19.855,41c-0.012,0.008,4.489-1.257,5.133-2.497c0.902-1.736-0.64-2.151-0.555-3.856 c0.08-1.503,3.904-2.38,3.904-2.38l0,0c0,0-1.699,0.406-0.776,2.316c0.523,1.084,3.037,1.993,3.037,3.479 c0,1.739-2.46,2.938-2.46,2.938L19.855,41z"/><path fill="#5bc1fd" d="M19.877,41c-0.012,0.008,4.471-1.254,5.117-2.49c0.909-1.739-0.639-2.155-0.554-3.863 c0.08-1.5,3.897-2.38,3.897-2.38l0,0c0,0-1.699,0.404-0.787,2.313c0.518,1.085,3.04,1.995,3.04,3.481 C30.59,39.8,28.126,41,28.126,41L19.877,41z"/><path fill="#5bc2fd" d="M19.898,41c-0.012,0.008,4.454-1.251,5.101-2.483c0.916-1.742-0.638-2.159-0.553-3.87 c0.079-1.496,3.891-2.381,3.891-2.381l0,0c0,0-1.7,0.402-0.797,2.311c0.513,1.085,3.043,1.996,3.043,3.483 c0,1.738-2.469,2.94-2.469,2.94L19.898,41z"/><path fill="#5cc2fd" d="M19.92,41c-0.012,0.008,4.436-1.248,5.086-2.476c0.923-1.744-0.637-2.163-0.552-3.877 c0.078-1.493,3.884-2.381,3.884-2.381l0,0c0,0-1.7,0.4-0.808,2.308c0.508,1.086,3.045,1.998,3.045,3.486 c0,1.738-2.473,2.94-2.473,2.94L19.92,41z"/><path fill="#5cc2fd" d="M19.941,41c-0.012,0.008,4.419-1.245,5.07-2.468c0.93-1.747-0.636-2.167-0.551-3.884 c0.077-1.489,3.878-2.381,3.878-2.381l0,0c0,0-1.701,0.398-0.819,2.305c0.503,1.087,3.048,2,3.048,3.488 c0,1.738-2.478,2.941-2.478,2.941L19.941,41z"/><path fill="#5dc2fd" d="M19.962,41c-0.012,0.008,4.401-1.242,5.054-2.461c0.937-1.75-0.635-2.17-0.551-3.891 c0.077-1.485,3.871-2.381,3.871-2.381l0,0c0,0-1.701,0.396-0.829,2.302c0.498,1.088,3.051,2.002,3.051,3.49 c0,1.737-2.482,2.942-2.482,2.942L19.962,41z"/><path fill="#5dc3fd" d="M19.984,41c-0.012,0.008,4.384-1.239,5.038-2.454c0.944-1.752-0.634-2.174-0.55-3.898 c0.076-1.482,3.865-2.381,3.865-2.381l0,0c0,0-1.702,0.394-0.84,2.299c0.492,1.088,3.054,2.004,3.054,3.492 c0,1.737-2.487,2.942-2.487,2.942L19.984,41z"/><path fill="#5dc3fe" d="M20.005,41c-0.012,0.008,4.366-1.236,5.023-2.447c0.952-1.755-0.633-2.178-0.549-3.905 c0.075-1.478,3.858-2.382,3.858-2.382l0,0c0,0-1.702,0.392-0.851,2.296c0.487,1.089,3.057,2.006,3.057,3.495 c0,1.736-2.491,2.943-2.491,2.943L20.005,41z"/><path fill="#5ec3fe" d="M20.027,41c-0.012,0.008,4.349-1.233,5.007-2.439c0.959-1.757-0.632-2.182-0.548-3.912 c0.074-1.474,3.851-2.382,3.851-2.382l0,0c0,0-1.703,0.39-0.861,2.293c0.482,1.09,3.06,2.007,3.06,3.497 c0,1.736-2.496,2.943-2.496,2.943L20.027,41z"/><path fill="#5ec3fe" d="M20.048,41c-0.012,0.008,4.331-1.23,4.991-2.432c0.966-1.76-0.631-2.186-0.547-3.919 c0.073-1.471,3.845-2.382,3.845-2.382l0,0c0,0-1.704,0.388-0.872,2.29c0.477,1.091,3.062,2.009,3.062,3.499 c0,1.736-2.5,2.944-2.5,2.944L20.048,41z"/><path fill="#5fc4fe" d="M20.07,41c-0.012,0.008,4.313-1.227,4.975-2.425c0.974-1.762-0.63-2.189-0.546-3.926 c0.073-1.467,3.838-2.382,3.838-2.382l0,0c0,0-1.704,0.386-0.882,2.287c0.472,1.091,3.065,2.011,3.065,3.501 c0,1.735-2.505,2.945-2.505,2.945L20.07,41z"/><path fill="#5fc4fe" d="M20.091,41c-0.012,0.008,4.296-1.224,4.959-2.417c0.981-1.765-0.628-2.193-0.545-3.933 c0.072-1.464,3.832-2.383,3.832-2.383l0,0c0,0-1.708,0.386-0.893,2.285c0.464,1.093,3.068,2.013,3.068,3.504 c0,1.735-2.509,2.945-2.509,2.945L20.091,41z"/><path fill="#5fc4fe" d="M20.113,41c-0.012,0.008,4.278-1.221,4.944-2.41c0.988-1.767-0.627-2.197-0.544-3.94 c0.071-1.46,3.825-2.383,3.825-2.383l0,0c0,0-1.708,0.383-0.904,2.282c0.46,1.094,3.071,2.015,3.071,3.506 c0,1.735-2.514,2.946-2.514,2.946L20.113,41z"/><path fill="#60c4ff" d="M20.134,41c-0.012,0.008,4.261-1.218,4.928-2.403c0.996-1.769-0.626-2.201-0.543-3.947 c0.07-1.456,3.818-2.383,3.818-2.383l0,0c0,0-1.708,0.381-0.914,2.279c0.455,1.094,3.074,2.017,3.074,3.508 c0,1.734-2.518,2.946-2.518,2.946L20.134,41z"/><path fill="#60c5ff" d="M20.156,41c-0.012,0.008,4.243-1.215,4.912-2.396c1.003-1.772-0.625-2.205-0.542-3.955 c0.069-1.453,3.812-2.383,3.812-2.383l0,0c0,0-1.708,0.379-0.925,2.276c0.45,1.095,3.077,2.018,3.076,3.511 c0,1.734-2.523,2.947-2.523,2.947L20.156,41z"/><path fill="#61c5ff" d="M20.177,41c-0.012,0.008,4.228-1.211,4.896-2.388c1.013-1.773-0.624-2.208-0.542-3.962 c0.069-1.449,3.805-2.383,3.805-2.383l0,0c0,0-1.708,0.376-0.936,2.273c0.445,1.096,3.079,2.02,3.079,3.513 c0,1.733-2.527,2.948-2.527,2.948L20.177,41z"/><path fill="#61c5ff" d="M20.199,41c-0.012,0.008,4.209-1.208,4.881-2.381c1.018-1.776-0.623-2.212-0.541-3.969 c0.068-1.445,3.799-2.384,3.799-2.384l0,0c0,0-1.708,0.374-0.946,2.27c0.44,1.096,3.082,2.022,3.082,3.515 c0,1.733-2.532,2.948-2.532,2.948L20.199,41z"/><linearGradient id="TNVn4gfXYACx1XIU5cfQrc" x1="22.442" x2="34.537" y1="26.415" y2="31.757" gradientUnits="userSpaceOnUse"><stop offset="0" stop-color="#80889c"/><stop offset=".16" stop-color="#70788c"/><stop offset=".484" stop-color="#555e72"/><stop offset=".772" stop-color="#454e62"/><stop offset=".993" stop-color="#3f485c"/></linearGradient><polygon fill="url(#TNVn4gfXYACx1XIU5cfQrc)" points="19.639,32.267 23.685,28.029 27.272,26.108 30.096,22.707 34.452,27.417 35.107,32.267 29.374,32.267"/><polygon fill="#2e414f" points="30.096,22.707 30.473,25.05 26.86,30.264 26.133,32.267 29.963,32.267 32.413,25.213"/><g><linearGradient id="TNVn4gfXYACx1XIU5cfQrd" x1="14.061" x2="16.196" y1="30.999" y2="30.999" gradientUnits="userSpaceOnUse"><stop offset="0" stop-color="#634614"/><stop offset=".202" stop-color="#845d1b"/><stop offset=".381" stop-color="#9b6d1f"/><stop offset=".494" stop-color="#a37321"/><stop offset=".645" stop-color="#94691e"/><stop offset=".932" stop-color="#6d4d16"/><stop offset="1" stop-color="#634614"/></linearGradient><path fill="url(#TNVn4gfXYACx1XIU5cfQrd)" d="M15.678,23.896h-1.093c0,14.171-0.546,12.931-0.546,14.206h2.186 C16.225,36.868,15.678,38,15.678,23.896z"/><linearGradient id="TNVn4gfXYACx1XIU5cfQre" x1="15.132" x2="15.132" y1="33.853" y2="36.211" gradientUnits="userSpaceOnUse"><stop offset="0" stop-color="#38280b"/><stop offset="1" stop-color="#38280b" stop-opacity="0"/></linearGradient><path fill="url(#TNVn4gfXYACx1XIU5cfQre)" d="M15.678,23.896h-1.093c0,14.171-0.546,12.931-0.546,14.206h2.186 C16.225,36.868,15.678,38,15.678,23.896z"/><radialGradient id="TNVn4gfXYACx1XIU5cfQrf" cx="-61.597" cy="18.882" r="6.93" gradientTransform="matrix(.0141 1.0779 -1.3976 .0148 42.15 93.036)" gradientUnits="userSpaceOnUse"><stop offset=".279" stop-color="#253808"/><stop offset=".581" stop-color="#57801a"/><stop offset=".852" stop-color="#70a622"/><stop offset="1" stop-color="#7ab525"/></radialGradient><path fill="url(#TNVn4gfXYACx1XIU5cfQrf)" d="M22.421,31.516c0.01-0.203-0.941-0.202-1.843-0.733c-0.583-0.343,1.392-0.731-0.656-1.267 c-1.625-0.425-3.833-2.852-3.932-3.594h-1.774c-0.099,0.742-2.242,3.202-5.198,4.41c-0.69,0.282,1.229,0.628,0.646,0.971 c-0.902,0.532-1.54,0.535-1.53,0.738c0.013,0.272,0.496,0.291,0.711,0.524c0.215,0.233-0.554,0.821-0.309,1.051 c0.245,0.23,1.042-0.45,1.279-0.236c0.196,0.178,0.133,0.723,0.432,0.868c0.235,0.114,1.12-0.732,1.491-0.712 c0.372,0.02,0.263,1.017,0.953,1.018s0.702-0.91,1.062-0.89c0.372,0.02,0.448,1.092,1.245,1.092c0.797,0,0.805-0.62,1.177-0.64 c0.36-0.019,0.441,0.44,1.13,0.439c0.689-0.002,0.259-1.023,0.631-1.044c0.372-0.02,1.449,0.857,1.684,0.743 c0.299-0.145-0.145-1.075,0.051-1.253c0.237-0.215,1.545,0.845,1.79,0.615c0.244-0.23-0.239-1.047,0.056-1.168 C22.057,32.227,22.408,31.788,22.421,31.516z"/><radialGradient id="TNVn4gfXYACx1XIU5cfQrg" cx="-842.232" cy="17.363" r="5.616" gradientTransform="matrix(-.0141 1.0779 1.3976 .0148 -20.79 932.884)" gradientUnits="userSpaceOnUse"><stop offset=".206" stop-color="#283b0c"/><stop offset=".502" stop-color="#57801a"/><stop offset=".825" stop-color="#70a622"/><stop offset="1" stop-color="#7ab525"/></radialGradient><path fill="url(#TNVn4gfXYACx1XIU5cfQrg)" d="M9.474,28.484c-0.008-0.167,0.633-0.108,1.375-0.545c0.479-0.282-1.429-0.599,0.14-1.18 c1.409-0.521,2.947-2.363,3.028-2.973h1.843c0.081,0.61,1.843,2.632,4.273,3.626c0.568,0.232-1.01,0.516-0.532,0.798 c0.742,0.437,1.266,0.44,1.258,0.607c-0.011,0.224-0.408,0.24-0.585,0.431c-0.177,0.192,0.455,0.675,0.254,0.865 c-0.201,0.189-1.353-0.587-1.548-0.41c-0.161,0.146,0.387,0.811,0.141,0.93c-0.193,0.094-0.786-0.3-1.092-0.283 c-0.306,0.017-0.351,0.534-0.917,0.535c-0.567,0.001-0.743-0.994-1.039-0.978c-0.306,0.017-0.202,1.143-0.858,1.143 c-0.655,0-0.724-0.77-1.03-0.786c-0.296-0.016-0.3,0.622-0.867,0.621c-0.567-0.001-0.434-0.783-0.74-0.799 c-0.306-0.016-0.971,0.646-1.163,0.552c-0.246-0.119,0.126-0.916-0.035-1.062c-0.194-0.176-1.406,0.98-1.607,0.791 c-0.201-0.189,0.326-1.114,0.084-1.213C9.411,28.969,9.484,28.707,9.474,28.484z"/><radialGradient id="TNVn4gfXYACx1XIU5cfQrh" cx="-19.889" cy="14.689" r="4.638" gradientTransform="matrix(1.0811 0 0 1.078 36.636 6.564)" gradientUnits="userSpaceOnUse"><stop offset=".171" stop-color="#30470f"/><stop offset=".47" stop-color="#57801a"/><stop offset=".814" stop-color="#70a622"/><stop offset="1" stop-color="#7ab525"/></radialGradient><path fill="url(#TNVn4gfXYACx1XIU5cfQrh)" d="M19.639,25.043c0.006-0.137-0.739-0.008-1.29-0.367c-0.356-0.232,0.816-0.932-0.237-0.984 c-1.025-0.051-2.341-1.927-2.401-2.428h-1.083c-0.06,0.501-1.369,2.163-3.174,2.979c-0.422,0.191,0.75,0.424,0.395,0.656 c-0.551,0.359-0.94,0.361-0.934,0.499c0.008,0.184,0.303,0.197,0.434,0.354c0.132,0.157-0.243,0.647-0.094,0.803 c0.149,0.155,0.546-0.161,0.69-0.016c0.12,0.12,0.077,0.252,0.259,0.35c0.143,0.077,0.584-0.246,0.811-0.233 c0.227,0.014,0.26,0.439,0.681,0.44s0.422-0.739,0.642-0.726c0.227,0.014,0.28,0.862,0.767,0.862c0.487,0,0.492-0.419,0.719-0.432 c0.22-0.013,0.269,0.297,0.69,0.296c0.421-0.001,0.122-0.763,0.349-0.777c0.227-0.014,0.921,0.651,1.064,0.574 c0.183-0.098,0.115-0.492,0.235-0.612c0.144-0.145,0.74,0.337,0.889,0.181c0.149-0.155-0.146-0.708,0.034-0.789 C19.417,25.523,19.631,25.227,19.639,25.043z"/><radialGradient id="TNVn4gfXYACx1XIU5cfQri" cx="-918.503" cy="20.382" r="3.884" gradientTransform="matrix(-1 0 0 1 -903.468 0)" gradientUnits="userSpaceOnUse"><stop offset=".171" stop-color="#30470f"/><stop offset=".47" stop-color="#57801a"/><stop offset=".814" stop-color="#70a622"/><stop offset="1" stop-color="#7ab525"/></radialGradient><path fill="url(#TNVn4gfXYACx1XIU5cfQri)" d="M11.544,22.436c-0.005-0.107,0.572-0.006,0.999-0.285c0.276-0.18-0.632-0.724,0.183-0.765 c0.794-0.04,1.813-1.497,1.86-1.886h0.839c0.047,0.389,1.061,1.68,2.459,2.315c0.327,0.148-0.581,0.33-0.306,0.51 c0.427,0.279,0.728,0.281,0.724,0.387c-0.006,0.143-0.234,0.153-0.336,0.275c-0.102,0.122,0.262,0.431,0.146,0.552 c-0.116,0.121-0.371-0.138-0.483-0.026c-0.093,0.093-0.185,0.281-0.326,0.357c-0.111,0.06-0.493-0.24-0.669-0.23 c-0.176,0.011-0.161,0.39-0.488,0.391c-0.326,0.001-0.413-0.579-0.584-0.569c-0.176,0.011-0.131,0.675-0.508,0.675 s-0.413-0.613-0.589-0.624c-0.17-0.01-0.176,0.519-0.502,0.518c-0.326-0.001-0.215-0.737-0.39-0.748 c-0.176-0.011-0.594,0.65-0.705,0.59c-0.142-0.076-0.089-0.382-0.182-0.476c-0.112-0.113-0.573,0.262-0.689,0.141 c-0.116-0.121,0.113-0.55-0.027-0.613C11.716,22.809,11.55,22.579,11.544,22.436z"/><linearGradient id="TNVn4gfXYACx1XIU5cfQrj" x1="15.132" x2="15.132" y1="17.142" y2="21.773" gradientUnits="userSpaceOnUse"><stop offset="0" stop-color="#59841b"/><stop offset="1" stop-color="#7ab525"/></linearGradient><path fill="url(#TNVn4gfXYACx1XIU5cfQrj)" d="M17.659,20.425c0.059-0.152-1.166-1.018-1.51-1.385c-0.604-0.784-0.729-1.944-1.02-1.944 c-0.29,0-0.368,1.215-1.001,1.949c-0.344,0.367-1.583,1.227-1.524,1.38c0.059,0.152,0.464,0.073,0.532,0.233 c0.068,0.161-0.358,0.47-0.23,0.599c0.313,0.318,0.927-0.503,1.039-0.371c0.092,0.109-0.192,0.653-0.051,0.742 c0.111,0.07,0.444-0.284,0.62-0.272c0.175,0.012,0.251,0.535,0.619,0.535s0.234-1.019,0.409-1.031 c0.175-0.012,0.718,0.838,0.829,0.768c0.141-0.089,0.119-0.377,0.211-0.486c0.111-0.132,0.661,0.257,0.776,0.115 c0.115-0.141-0.325-0.438-0.257-0.599C17.168,20.498,17.6,20.577,17.659,20.425z"/></g><path fill="#fff9ef" d="M38.452,20.165c0.019-0.113,0.035-0.227,0.035-0.345c0-1.178-0.955-2.133-2.133-2.133 c-0.367,0-0.708,0.101-1.009,0.265c-0.459-0.683-1.239-1.133-2.125-1.133c-1.038,0-1.927,0.621-2.329,1.509 c-0.312-0.257-0.707-0.418-1.143-0.418c-0.78,0-1.439,0.497-1.691,1.19c-0.142-0.054-0.294-0.087-0.455-0.087 c-0.662,0-1.201,0.507-1.263,1.153H38.452z"/><linearGradient id="TNVn4gfXYACx1XIU5cfQrk" x1="29.693" x2="44.001" y1="20.694" y2="29.093" gradientUnits="userSpaceOnUse"><stop offset="0" stop-color="#80889c"/><stop offset=".16" stop-color="#70788c"/><stop offset=".484" stop-color="#555e72"/><stop offset=".772" stop-color="#454e62"/><stop offset=".993" stop-color="#3f485c"/></linearGradient><polygon fill="url(#TNVn4gfXYACx1XIU5cfQrk)" points="28.337,32.267 32.685,22.916 36.086,18.492 37.006,15.286 38.619,13.565 41,16.395 40.962,32.267"/><polygon fill="#2e414f" points="38.619,13.565 39.295,19.813 37.447,24.823 38.034,32.267 41,32.267 41,16.395"/></svg>